<?xml version="1.0" encoding="UTF-8"?>
<svg version="1.1" xmlns="http://www.w3.org/2000/svg" width="603" height="603">
<path d="M0 0 C43.56 0 87.12 0 132 0 C132 6.12589921 131.95503954 11.70006265 131.35461426 17.71214294 C131.25048367 18.77534078 131.25048367 18.77534078 131.14424944 19.86001736 C130.91395382 22.19940034 130.67672738 24.53802437 130.43945312 26.87670898 C130.2715417 28.56783395 130.1040681 30.25900243 129.93699646 31.95021057 C129.48472591 36.516229 129.02648096 41.08163018 128.56720543 45.64694858 C128.08704252 50.43109912 127.61270838 55.21582733 127.13781738 60.00050354 C126.23851677 69.05284169 125.33447461 78.10469919 124.42849588 87.15637118 C122.8041344 103.38723391 121.18831248 119.61894842 119.57356024 135.85076958 C119.00671829 141.54692604 118.43793907 147.24288489 117.86753082 152.9386853 C117.51377964 156.47322648 117.16117658 160.00788158 116.80882454 163.54256248 C116.64487008 165.18455938 116.48039936 166.82650482 116.315382 168.46839523 C116.0907089 170.7043795 115.86782896 172.94053552 115.64538574 175.17674255 C115.5200219 176.42937613 115.39465805 177.68200972 115.2654953 178.97260189 C114.95631889 181.9915854 114.95631889 181.9915854 115 185 C115.52207031 184.35675781 116.04414063 183.71351563 116.58203125 183.05078125 C120.83944483 177.82407911 125.13484371 172.63678645 129.5 167.5 C134.40547922 161.72459197 139.22028691 155.88007869 144 150 C148.7797175 144.11991588 153.59473597 138.27559389 158.5 132.5 C162.55000511 127.73078305 166.54351856 122.92087884 170.49609375 118.0703125 C178.31028475 108.48848079 186.16693174 98.94429692 194.17407227 89.52294922 C197.66180606 85.41421771 201.08524186 81.2570818 204.48828125 77.078125 C207.64610154 73.20819905 210.8229182 69.35411636 214 65.5 C219.34723497 59.01129318 224.68255919 52.51316163 230 46 C233.26362976 47.43093845 235.42615023 49.17870865 237.93572998 51.69522095 C238.70691666 52.46365829 239.47810333 53.23209564 240.2726593 54.02381897 C241.52746346 55.28940895 241.52746346 55.28940895 242.80761719 56.58056641 C243.69577621 57.46843338 244.58393524 58.35630035 245.49900818 59.27107239 C247.93087819 61.70236891 250.35653521 64.13977964 252.78112316 66.57833529 C255.31731792 69.12703803 257.85918285 71.67007289 260.40045166 74.2137146 C265.21028534 79.02976284 270.01499831 83.85088633 274.81789231 88.67385423 C280.28672294 94.16504458 285.76123807 99.65055261 291.236238 105.13559079 C302.4971623 116.41741655 313.75092689 127.70635667 325 139 C321.48311273 142.54831116 317.8867465 145.91246841 314.0625 149.125 C313.49821289 149.60090576 312.93392578 150.07681152 312.35253906 150.56713867 C307.82020167 154.36512741 303.18983559 158.02586887 298.52270508 161.65600586 C292.94389421 166.00856936 287.49073138 170.50734109 282.03833008 175.01660156 C277.60848897 178.67912821 273.15198472 182.30226856 268.65234375 185.87890625 C265.08471394 188.73195925 261.54300633 191.61646133 258 194.5 C253.70210841 197.99791546 249.40050947 201.48933863 245.0625 204.9375 C240.49939562 208.57408572 235.99995704 212.2858578 231.5 216 C226.24403695 220.338129 220.97261938 224.65089411 215.63671875 228.890625 C211.463397 232.2292824 207.32947585 235.61637058 203.18798828 238.99438477 C198.05053312 243.17364931 192.85985072 247.27965457 187.60449219 251.30981445 C184.1434399 253.99239138 181.07040164 256.88390689 178 260 C179.45970042 259.80535235 179.45970042 259.80535235 180.94888973 259.60677242 C204.59033528 256.45449895 228.2326205 253.30858615 251.87580776 250.16940212 C263.30929196 248.65118969 274.74249087 247.13088582 286.17504883 245.60571289 C296.13571151 244.27690511 306.09687962 242.95196561 316.05868298 241.63173538 C321.33692196 240.93207515 326.61488122 240.23043541 331.89224052 239.52416801 C336.85320757 238.86030534 341.81483051 238.2015928 346.7770195 237.54692841 C348.60388675 237.30496622 350.43050001 237.06107782 352.25684166 236.81517982 C354.73877615 236.48129799 357.2215081 236.15418102 359.70457458 235.82884216 C360.80328916 235.67856234 360.80328916 235.67856234 361.9242 235.52524656 C363.61121903 235.3078553 365.30542751 235.14736434 367 235 C368 236 368 236 368.12304783 238.18454075 C368.12212604 239.15703235 368.12120424 240.12952394 368.12025452 241.13148499 C368.12162918 242.24352798 368.12300385 243.35557098 368.12442017 244.50131226 C368.12082489 245.73201447 368.11722961 246.96271667 368.11352539 248.23071289 C368.11367142 249.51833023 368.11381744 250.80594757 368.1139679 252.13258362 C368.11425586 255.6737476 368.10835936 259.21487799 368.10139394 262.75603414 C368.09516017 266.45294988 368.09455658 270.14986631 368.09336853 273.8467865 C368.09025528 280.85203899 368.08204199 287.85727595 368.07201904 294.86252159 C368.0608577 302.83578876 368.0553474 310.80905665 368.05032361 318.78232968 C368.03985937 335.18822889 368.02226005 351.59411247 368 368 C359.0250781 368.18777307 350.14657971 367.59432745 341.20654297 366.8984375 C339.64321611 366.77984752 338.07986073 366.66163305 336.51647949 366.54376221 C333.17103674 366.29076709 329.82580253 366.03522084 326.48070908 365.77764893 C321.18491126 365.36995792 315.88865292 364.96848465 310.59231567 364.56787109 C300.3074117 363.78909942 290.0229685 363.00434876 279.73858643 362.21871948 C266.64089705 361.21832368 253.54306482 360.21985414 240.44469559 359.22839546 C235.18585332 358.83011961 229.92728347 358.42846615 224.66890311 358.0241394 C221.3930855 357.7729192 218.11705933 357.52450493 214.8409729 357.27681732 C213.32884851 357.16191184 211.81681156 357.04584861 210.30487442 356.92850494 C202.85942386 356.35122373 195.47257486 355.85422014 188 356 C194.5198348 361.59926012 201.07744123 367.11468465 207.875 372.375 C213.65056316 376.85199247 219.18207337 381.56420997 224.6796875 386.37670898 C228.77859414 389.95951631 232.94746532 393.4172813 237.22265625 396.7890625 C246.26108282 403.98420939 255.13826345 411.38989218 263.9375 418.875 C268.28139509 422.56991334 272.68511718 426.17402387 277.15234375 429.71875 C286.73728821 437.39722403 296.17075397 445.26477436 305.52294922 453.22436523 C309.56380058 456.65453925 313.67888646 459.98073217 317.83203125 463.2734375 C320.5927078 465.47203035 323.3005928 467.72681499 326 470 C324.56906155 473.26362976 322.82129135 475.42615023 320.30477905 477.93572998 C319.53634171 478.70691666 318.76790436 479.47810333 317.97618103 480.2726593 C317.13245438 481.1091954 316.28872772 481.94573151 315.41943359 482.80761719 C314.53156662 483.69577621 313.64369965 484.58393524 312.72892761 485.49900818 C310.29763109 487.93087819 307.86022036 490.35653521 305.42166471 492.78112316 C302.87296197 495.31731792 300.32992711 497.85918285 297.7862854 500.40045166 C292.97023716 505.21028534 288.14911367 510.01499831 283.32614577 514.81789231 C277.83495542 520.28672294 272.34944739 525.76123807 266.86440921 531.236238 C255.58258345 542.4971623 244.29364333 553.75092689 233 565 C229.37470313 561.41030838 225.9619974 557.72250456 222.6875 553.8125 C222.20748535 553.24225098 221.7274707 552.67200195 221.23291016 552.08447266 C217.73760746 547.91740007 214.31853958 543.69397628 210.9375 539.43359375 C204.4532227 531.28902771 197.775425 523.29651746 191.15600586 515.26171875 C183.66668498 506.16978229 176.22038336 497.04362119 168.79443359 487.89990234 C161.99800722 479.53278157 155.16503566 471.19620377 148.3125 462.875 C147.71791992 462.15280273 147.12333984 461.43060547 146.51074219 460.68652344 C143.46999372 456.99430234 140.42580695 453.30500918 137.375 449.62109375 C130.11696787 440.84796348 122.98365412 431.99323622 116 423 C115.78415423 431.28225612 116.62386172 439.41610599 117.46875 447.64233398 C117.62678095 449.21358312 117.78440327 450.7848734 117.94165039 452.35620117 C118.27961021 455.725216 118.62030626 459.09393863 118.96313477 462.46246147 C119.50580481 467.79601472 120.04150956 473.13025376 120.57617188 478.46461487 C121.90506437 491.71191119 123.24386521 504.95820432 124.58300781 518.20446777 C125.62431083 528.50621187 126.66320202 538.80818873 127.69547272 549.11084229 C128.22633329 554.40640789 128.76190652 559.7014686 129.30114746 564.99618709 C129.63641975 568.29812378 129.96754624 571.60046691 130.2975769 574.90293121 C130.45063059 576.42600726 130.60537272 577.94891481 130.76199341 579.47162819 C130.9768201 581.56259391 131.18539528 583.6540993 131.39257812 585.74583435 C131.51056763 586.91219642 131.62855713 588.07855848 131.75012207 589.28026485 C132.05669561 593.8439827 132 598.42599651 132 603 C88.44 603 44.88 603 0 603 C1.15616319 583.34522571 1.15616319 583.34522571 2.20326233 573.72312927 C2.27959963 573.01700438 2.35593693 572.31087948 2.43458748 571.58335686 C2.51361746 570.85298777 2.59264744 570.12261868 2.67407227 569.37011719 C2.84205455 567.7895726 3.00967639 566.20898967 3.17697144 564.62837219 C3.53370467 561.2649559 3.89287832 557.90181315 4.25406075 554.53887177 C4.82540811 549.21859727 5.39085319 543.89770497 5.95555115 538.57672119 C7.0513923 528.25850354 8.15319845 517.94092716 9.25556946 507.62340546 C10.66303138 494.44710585 12.06739526 481.27047741 13.4671101 468.09335256 C14.02905412 462.80492982 14.59373636 457.51680882 15.16059697 452.22891092 C15.51183311 448.94783927 15.86092923 445.66654242 16.20946884 442.38518333 C16.37140876 440.86491576 16.53425516 439.34474443 16.69807625 437.82467842 C16.92158156 435.74972135 17.14185246 433.67444504 17.36134338 431.59906006 C17.48540841 430.43847958 17.60947344 429.27789909 17.73729801 428.08214951 C17.96874993 425.36664123 18.05206589 422.72298067 18 420 C11.94614497 427.00229231 5.91469748 434.00403955 0.171875 441.265625 C-2.58812996 444.74045139 -5.38684154 448.1829097 -8.1875 451.625 C-8.74300537 452.30804199 -9.29851074 452.99108398 -9.87084961 453.69482422 C-11.0119314 455.09774806 -12.15312716 456.50057922 -13.29443359 457.90332031 C-16.03116479 461.26762714 -18.7654955 464.63388328 -21.5 468 C-22.58332107 469.3333433 -23.66665442 470.66667662 -24.75 472 C-25.28625 472.66 -25.8225 473.32 -26.375 474 C-31.25 480 -31.25 480 -32.8762207 482.00146484 C-33.95553408 483.32987551 -35.0347987 484.65832579 -36.11401367 485.98681641 C-38.88344623 489.39579923 -41.65381835 492.80401176 -44.42578125 496.2109375 C-51.23967758 504.5838472 -51.23967758 504.5838472 -58 513 C-63.05438914 519.33652979 -68.17897858 525.61608778 -73.29443359 531.90332031 C-76.03116479 535.26762714 -78.76549605 538.63388284 -81.5 542 C-82.56639396 543.31250998 -83.63280028 544.62500993 -84.69921875 545.9375 C-85.23337402 546.59492187 -85.7675293 547.25234375 -86.31787109 547.9296875 C-91.21191406 553.953125 -96.10595703 559.9765625 -101 566 C-106.55153557 561.37567699 -111.68532596 556.4514384 -116.78100586 551.33251953 C-117.63058868 550.48308273 -118.48017151 549.63364594 -119.35549927 548.75846863 C-121.66467735 546.44871678 -123.97163402 544.13677455 -126.27758861 541.82380533 C-128.69542349 539.39968269 -131.1161257 536.97842664 -133.53651428 534.55685425 C-138.11049497 529.97977614 -142.68192244 525.40015687 -147.25241905 520.81959999 C-152.45968184 515.60112649 -157.66981362 510.38552138 -162.88017833 505.17014527 C-173.58996199 494.44993325 -184.29616999 483.72615683 -195 473 C-193.295623 469.31133708 -191.47380507 467.51800159 -188.25 465 C-183.75113397 461.4197506 -179.34917639 457.76054813 -175 454 C-170.01138343 449.69937544 -164.95775749 445.49512078 -159.84375 441.34375 C-156.52313514 438.60697951 -153.25953218 435.8089705 -150 433 C-145.01059233 428.70027287 -139.95778844 424.49514591 -134.84375 420.34375 C-131.52313514 417.60697951 -128.25953218 414.8089705 -125 412 C-120.87531796 408.44546839 -116.72792288 404.93207857 -112.5 401.5 C-107.09923828 397.11287098 -101.825323 392.58776588 -96.55078125 388.05078125 C-87.4696804 380.24038923 -78.2918692 372.55880895 -69 365 C-66.93645121 363.31377838 -64.8745333 361.62557579 -62.8125 359.9375 C-61.20836021 358.62496716 -59.60419818 357.31246149 -58 356 C-75.46034645 356.66910358 -92.86360211 357.97807622 -110.28160453 359.32261395 C-114.28582935 359.6308517 -118.29036246 359.93502818 -122.2948761 360.23948669 C-134.14938474 361.14149548 -146.00342138 362.04965123 -157.85736084 362.95910645 C-167.11614972 363.66938616 -176.37506489 364.37792553 -185.63438064 365.08130783 C-190.37780792 365.44183563 -195.12094822 365.80587198 -199.86389482 366.17266667 C-202.81524073 366.40013011 -205.76682141 366.62442481 -208.71847343 366.8478775 C-210.72042016 367.00037267 -212.72207923 367.15663002 -214.72372437 367.31303406 C-216.54152153 367.44969986 -216.54152153 367.44969986 -218.39604187 367.58912659 C-219.9562835 367.70885503 -219.9562835 367.70885503 -221.54804516 367.83100224 C-226.02701956 368.05027992 -230.51566121 368 -235 368 C-235 324.11 -235 280.22 -235 235 C-217.55125 237.32998047 -217.55125 237.32998047 -199.75 239.70703125 C-192.33985836 240.69607315 -184.92970997 241.68506414 -177.51953125 242.67382812 C-165.78166053 244.24005947 -154.04381623 245.80648685 -142.30615234 247.37426758 C-133.7537224 248.5166008 -125.20119691 249.65821576 -116.64856148 250.7990095 C-112.13058905 251.40166392 -107.61266148 252.00464985 -103.09484863 252.60849953 C-84.0725659 255.15078081 -65.04977394 257.6704467 -46 260 C-46.59248535 259.53013672 -47.1849707 259.06027344 -47.79541016 258.57617188 C-55.52333937 252.43892424 -63.12572285 246.15082946 -70.73583984 239.86865234 C-74.44689937 236.80584777 -78.16081344 233.74651121 -81.875 230.6875 C-82.9427063 229.80807739 -82.9427063 229.80807739 -84.03198242 228.91088867 C-89.67815114 224.26183875 -95.33544638 219.62663851 -101 215 C-106.00299517 210.91370271 -111.00460247 206.82632844 -115.98046875 202.70703125 C-122.6350184 197.2025944 -129.2982554 191.72756849 -136.125 186.4375 C-141.72180818 182.09554923 -147.06848567 177.51276678 -152.390625 172.84008789 C-157.0895812 168.73520357 -161.92378571 164.8514536 -166.85791016 161.03442383 C-171.51881722 157.41669735 -176.01763409 153.63341897 -180.49926758 149.79711914 C-184.54587543 146.34688004 -188.69676898 143.12195192 -193 140 C-192.42250187 136.33741455 -191.02539188 134.65389783 -188.42503357 132.06427002 C-187.27443954 130.90749001 -187.27443954 130.90749001 -186.1006012 129.7273407 C-185.25327927 128.8908046 -184.40595734 128.05426849 -183.53295898 127.19238281 C-182.64523804 126.30422379 -181.75751709 125.41606476 -180.84289551 124.50099182 C-178.40962186 122.06685714 -175.96720687 119.64208543 -173.52305865 117.21887684 C-170.9699011 114.68446806 -168.4252319 112.14156591 -165.87965393 109.59954834 C-161.05847825 104.78769841 -156.229706 99.98354714 -151.39816481 95.18210769 C-145.89777867 89.71524905 -140.40590466 84.23987341 -134.91473281 78.763762 C-123.6192736 67.49966381 -112.31316042 56.24632145 -101 45 C-97.23881504 46.73076303 -95.39061309 48.66437646 -92.8125 51.9375 C-92.02488281 52.92621094 -91.23726562 53.91492187 -90.42578125 54.93359375 C-89.62527344 55.94550781 -88.82476562 56.95742188 -88 58 C-86.50364943 59.83631318 -85.00372551 61.66972114 -83.5 63.5 C-65.5 85.5 -65.5 85.5 -63.234375 88.26953125 C-61.78702949 90.03822795 -60.33914699 91.80648543 -58.890625 93.57421875 C-55.06538556 98.24408223 -51.25012751 102.92177186 -47.44726562 107.60986328 C-40.51659931 116.15313087 -33.5324348 124.65113831 -26.53369141 133.13867188 C-22.01904137 138.61776959 -17.52752767 144.11563836 -13.0546875 149.62890625 C-11.97397879 150.9609541 -10.89324902 152.29298485 -9.8125 153.625 C-9.2669043 154.29748779 -8.72130859 154.96997559 -8.15917969 155.6628418 C-3.47552761 161.42906175 1.24318383 167.16592451 5.97924805 172.88916016 C9.0890298 176.65360835 12.16383631 180.44345098 15.21166992 184.25830078 C15.92361008 185.14913361 16.63555023 186.03996643 17.36906433 186.95779419 C17.9072731 187.63172211 18.44548187 188.30565002 19 189 C18.90207909 188.08062432 18.80415817 187.16124865 18.70326996 186.2140131 C16.31936971 163.82961083 13.94090663 141.44463591 11.56812286 119.05905247 C10.42053129 108.23351212 9.27118251 97.40816375 8.11767578 86.58325195 C7.11212665 77.1467836 6.10989604 67.70996967 5.11162615 58.27272838 C4.58308017 53.27716955 4.05288945 48.28179781 3.51872253 43.28683662 C3.01560573 38.58172694 2.51694042 33.87616635 2.02162743 29.17022896 C1.83944782 27.44678503 1.65566789 25.72350936 1.47013283 24.00042343 C1.21614553 21.63931732 0.96804121 19.27766094 0.72131348 16.91578674 C0.64738546 16.24163162 0.57345744 15.5674765 0.49728918 14.87289244 C-0.01951144 9.83696293 0 5.13567434 0 0 Z " fill="#F3B44A" transform="translate(235,0)"/>
</svg>
